<svg width="35" height="35" viewBox="0 0 35 35" fill="none" xmlns="http://www.w3.org/2000/svg">
<mask id="mask0_248_3904" style="mask-type:alpha" maskUnits="userSpaceOnUse" x="1" y="1" width="33" height="33">
<circle cx="17.4999" cy="17.4997" r="16.0417" fill="#D9D9D9"/>
</mask>
<g mask="url(#mask0_248_3904)">
<rect width="35" height="35" fill="#3082E3"/>
</g>
<path fill-rule="evenodd" clip-rule="evenodd" d="M14.0484 15.7689C14.0484 14.9634 14.7013 14.3105 15.5067 14.3105H17.4999C18.3054 14.3105 18.9583 14.9634 18.9583 15.7689V22.56H20.7168C21.5222 22.56 22.1752 23.2129 22.1752 24.0183C22.1752 24.8237 21.5222 25.4766 20.7168 25.4766H14.283C13.4776 25.4766 12.8247 24.8237 12.8247 24.0183C12.8247 23.2129 13.4776 22.56 14.283 22.56H16.0416V17.2272H15.5067C14.7013 17.2272 14.0484 16.5743 14.0484 15.7689Z" fill="white"/>
<path d="M19.2975 11.4307C19.2975 12.4845 18.4432 13.3389 17.3893 13.3389C16.3354 13.3389 15.4811 12.4845 15.4811 11.4307C15.4811 10.3768 16.3354 9.52246 17.3893 9.52246C18.4432 9.52246 19.2975 10.3768 19.2975 11.4307Z" fill="white"/>
</svg>
